#!OML:ASF F:\VICON\USERDATA\INSTALL\rory3\rory3.ASF
:FULLY-SPECIFIED
:DEGREES
2779
root -3.413 17.4777 -0.65474 -1.85867 18.4099 3.30348
lowerback 3.91731 -0.463632 -4.08439
upperback -2.16217 -0.872782 -0.451574
thorax -4.38327 -0.31881 1.88967
lowerneck -26.8353 1.65027 -9.12432
upperneck 1.38607 5.80072 -7.39537
head 4.532 2.19251 -0.334077
rclavicle -6.42323e-015 1.64991e-014
rhumerus 59.2833 -68.2301 -36.0247
rradius 81.046
rwrist -3.66042
rhand -50.8525 5.71718
rfingers 7.12502
rthumb -23.4071 -22.8793
lclavicle -6.42323e-015 1.64991e-014
lhumerus 63.6647 68.6337 46.6324
lradius 75.3237
lwrist 30.2308
lhand -22.8325 22.4958
lfingers 7.12502
lthumb 3.60484 52.445
rfemur -22.0219 -0.170744 9.5424
rtibia 47.3806
rfoot -16.1174 -17.0321
rtoes 8.89203
lfemur 8.31621 0.44593 -26.1881
ltibia 17.3585
lfoot -18.7019 -10.9761
ltoes -5.52622
2780
root -3.38618 17.4684 -0.641339 -1.77703 18.6995 3.46235
lowerback 3.98211 -0.450797 -4.28942
upperback -2.37289 -0.880206 -0.534789
thorax -4.63885 -0.309046 1.92091
lowerneck -26.5291 1.7441 -9.12343
upperneck 1.9058 5.91632 -7.22296
head 4.65102 2.23489 -0.263929
rclavicle 3.17745e-014 1.65985e-014
rhumerus 58.9571 -68.6602 -36.4358
rradius 81.6199
rwrist -3.36565
rhand -51.2437 6.34748
rfingers 7.12502
rthumb -23.7823 -22.2007
lclavicle 3.17745e-014 1.65985e-014
lhumerus 63.204 69.7487 47.3629
lradius 76.6295
lwrist 31.425
lhand -22.8942 22.0805
lfingers 7.12502
lthumb 3.54529 52.0308
rfemur -22.2167 -0.600518 9.47978
rtibia 47.3552
rfoot -15.9877 -16.1123
rtoes 10.0198
lfemur 8.2547 0.317144 -26.4177
ltibia 17.5681
lfoot -18.8345 -11.0554
ltoes -5.42731
2781
root -3.36054 17.4525 -0.627999 -1.74695 19.0404 3.5653
lowerback 4.04257 -0.492813 -4.41687
upperback -2.48991 -0.953546 -0.603605
thorax -4.79067 -0.337344 1.92811
lowerneck -26.2921 1.80413 -9.23532
upperneck 2.1812 5.99988 -6.98014
head 4.69306 2.28055 -0.159958
rclavicle -2.36616e-014 -2.80286e-014
rhumerus 58.669 -69.2206 -36.8807
rradius 81.9038
rwrist -2.82664
rhand -51.609 5.01635
rfingers 7.12502
rthumb -24.1327 -23.4858
lclavicle -2.36616e-014 -2.80286e-014
lhumerus 62.6346 70.9641 47.8866
lradius 77.7864
lwrist 32.6219
lhand -22.9933 22.0472
lfingers 7.12502
lthumb 3.44961 51.999
rfemur -22.3161 -1.09769 9.50325
rtibia 47.2481
rfoot -16.123 -15.1983
rtoes 9.29623
lfemur 8.18698 0.235873 -26.5552
ltibia 17.8756
lfoot -18.9896 -11.2417
ltoes -5.246
2782
root -3.33576 17.4415 -0.610587 -1.80165 19.3116 3.39032
lowerback 3.96706 -0.524234 -4.31384
upperback -2.55451 -0.987319 -0.612836
thorax -4.81437 -0.356139 1.86286
lowerneck -25.9866 1.89251 -9.10568
upperneck 2.35615 6.05989 -7.03876
head 4.71344 2.30251 -0.191498
rclavicle -4.97397e-014 9.51682e-015
rhumerus 57.8504 -70.0423 -36.7704
rradius 81.9504
rwrist -2.46619
rhand -51.5737 1.41163
rfingers 7.12502
rthumb -24.0988 -27.095
lclavicle -4.97397e-014 9.51682e-015
lhumerus 61.8525 72.1759 48.0682
lradius 78.748
lwrist 33.923
lhand -23.7103 22.3869
lfingers 7.12502
lthumb 2.75712 52.3488
rfemur -22.3807 -1.45758 9.86016
rtibia 47.0491
rfoot -16.7446 -14.175
rtoes 6.86237
lfemur 8.11986 0.195441 -26.3814
ltibia 18.1897
lfoot -19.1213 -11.4841
ltoes -4.90769
2783
root -3.31015 17.4383 -0.591643 -1.87206 19.4954 3.18657
lowerback 3.92604 -0.516696 -4.22237
upperback -2.66859 -0.972488 -0.607206
thorax -4.9123 -0.347993 1.81644
lowerneck -25.9359 1.99214 -9.15478
upperneck 2.99616 6.22754 -6.75658
head 4.89949 2.36478 -0.0706097
rclavicle 2.27826e-015 -7.79609e-016
rhumerus 57.0214 -70.6782 -36.7506
rradius 81.9775
rwrist -2.27676
rhand -53.4766 3.57054
rfingers 7.12502
rthumb -25.9222 -24.6821
lclavicle 2.27826e-015 -7.79609e-016
lhumerus 61.0763 73.2275 48.2985
lradius 79.5364
lwrist 35.2831
lhand -24.3043 22.8603
lfingers 7.12502
lthumb 2.18348 52.8289
rfemur -22.5026 -1.74366 10.2416
rtibia 46.7894
rfoot -17.0632 -13.3504
rtoes 5.63478
lfemur 8.09512 0.195634 -26.18
ltibia 18.4394
lfoot -19.2402 -11.7252
ltoes -4.37614
